<svg xmlns="http://www.w3.org/2000/svg" viewBox="0 0 431.19 204.73"><defs><style>.a{fill:#e43d2c}</style></defs><path class="a" d="M269.55 140.17c-.93 2.44-1.75 5-2.83 7.35s-2.24 5.08-3.66 7.48l-2.06 3.64c-.73 1.18-1.53 2.32-2.29 3.5-1.5 2.37-3.26 4.55-5 6.76a93.89 93.89 0 01-25.65 22.1 97.25 97.25 0 01-32.27 12.07 100.16 100.16 0 01-68-11.7 102.59 102.59 0 01-45.2-53.35 103.2 103.2 0 01-.42-70.24 102.55 102.55 0 0144.47-53.88 100.29 100.29 0 0132.95-12.27A101.42 101.42 0 01177 0c1.45 0 2.92 0 4.37.06l4.35.31a77.73 77.73 0 018.62 1.06l2.16.34 2.11.49 4.23 1c2.8.73 5.53 1.62 8.27 2.53A103.79 103.79 0 01226.73 13a93.94 93.94 0 0142.07 50.65H261l-.34-.56c-.67-1.08-1.26-2.2-2-3.21-1.48-2.06-2.81-4.19-4.46-6.09l-2.33-2.93-2.52-2.76c-1.61-1.89-3.49-3.55-5.27-5.26a35.7 35.7 0 00-2.8-2.42l-2.83-2.37-3-2.16a32.74 32.74 0 00-3-2.07c-2.11-1.26-4.09-2.67-6.29-3.74L223 28.37l-3.31-1.48A84 84 0 00192 19.83c-2.38-.13-4.73-.35-7.11-.26h-3.54c-1.17.06-2.36.16-3.53.22a90.78 90.78 0 00-13.87 2.28 79.54 79.54 0 00-13.18 4.54 85.31 85.31 0 00-12.2 6.59 83.69 83.69 0 00-20.19 18.67 82.19 82.19 0 00-12.55 77.74 83.51 83.51 0 0013.28 23.84 83.26 83.26 0 0046 29.06 85.94 85.94 0 0013.89 2.06 99.71 99.71 0 0014.14-.23 85.29 85.29 0 0027.45-7.49 87.61 87.61 0 0024.11-16.27 70.22 70.22 0 005.19-5.3c.81-.94 1.66-1.84 2.46-2.8l2.28-2.95c1.63-1.91 2.91-4.06 4.36-6.13.75-1 1.31-2.15 2-3.23z"/><path d="M123.67 90.28h-9.4v-4.77h23.94v4.77h-9.45v27.96h-5.09V90.28zm22.46-4.77h11.17c3.55 0 6.33.83 8.32 2.48s3 4.15 3 7.48a9.37 9.37 0 01-5.65 9.12l7.34 13.65h-5.94l-6.5-12.48h-6.5v12.48h-5.23zm10.47 15.81a7.23 7.23 0 005-1.52 6.21 6.21 0 000-8.42 7.24 7.24 0 00-5-1.47h-5.33v11.41zm39.5 8.55h-12.29l-2.95 8.37h-5.14l11.69-32.73h5.09l11.74 32.73h-5.19zm-1.59-4.53L190 92.48l-4.54 12.86zm17.43-19.83h5.1v32.73h-5.1zm16.22 0h5.24l15.24 23.05V85.51h5.14v32.73h-4.3l-16.22-24.4v24.4h-5.1V85.51zm37.22 0h5.1v32.73h-5.1zm16.69 0h5.24l15.24 23.05V85.51h5.14v32.73h-4.3l-16.22-24.4v24.4h-5.1V85.51zm42.26 31.28a14.61 14.61 0 01-5.75-6 18.92 18.92 0 01-2.06-9 17.85 17.85 0 012.18-8.91 15.15 15.15 0 016.05-6 18.19 18.19 0 018.79-2.1 23.6 23.6 0 014.89.51 20.82 20.82 0 014.23 1.36l-.52 4.68a22 22 0 00-8.5-1.78c-3.81 0-6.67 1.12-8.61 3.37a13 13 0 00-2.89 8.83c0 3.74 1 6.73 2.92 9s4.79 3.35 8.53 3.35a17.17 17.17 0 005.05-.7v-7.2h-4.86v-4.4h10v14.59a17.13 17.13 0 01-4.79 1.8 26.76 26.76 0 01-6.15.68 16.81 16.81 0 01-8.46-2.11" fill="#fff"/><path d="M369.27 101a8.26 8.26 0 003.32-6.91 8.71 8.71 0 00-2.78-6.64 10 10 0 00-7.13-2.59 9.73 9.73 0 00-6.75 2.2c-1.6 1.46-2.68 3.77-3.19 6.86l-.05.32h5.4l.05-.21a6.39 6.39 0 011.51-3.26 4.36 4.36 0 013-.92 4.62 4.62 0 013.35 1.28 4.1 4.1 0 011.3 3.18 4 4 0 01-1.81 3.69 8.33 8.33 0 01-4 .65h-.27v4.71h.27a8.43 8.43 0 014.07.76 4.7 4.7 0 012.2 4.43 5.42 5.42 0 01-1.47 3.9 5.07 5.07 0 01-3.73 1.5 5.41 5.41 0 01-3.64-1.19 5.52 5.52 0 01-1.74-3.43v-.23h-5.25v.29a11.45 11.45 0 001.53 5.12c1.94 2.94 4.94 4.43 8.92 4.43a10.84 10.84 0 007.72-2.85 9.69 9.69 0 003-7.33c0-3.48-1.28-6.08-3.82-7.72m22.18-3.66h-1.17l8.75-12h-6.24l-10.49 14.44c-2.14 2.9-3.23 5.69-3.23 8.3a10.27 10.27 0 003.34 7.61 11.22 11.22 0 007.91 3.2 11.13 11.13 0 0011.08-11.08 10.34 10.34 0 00-2.93-7.37 9.4 9.4 0 00-7-3.1m4.64 10.78a5.86 5.86 0 01-5.83 5.78 5.72 5.72 0 01-4.18-1.71 5.87 5.87 0 010-8.26 5.87 5.87 0 0110 4.19m31.41-18.97a9.69 9.69 0 00-16.08 0c-2.43 3.11-3.67 7.33-3.67 12.53 0 5.46 1.24 9.81 3.67 12.93a10 10 0 008.06 4.28 9.9 9.9 0 008-4.28c2.44-3.12 3.67-7.4 3.67-12.72s-1.17-9.63-3.65-12.74m-8 .69c1.8 0 3.32 1.13 4.53 3.34a18.31 18.31 0 011.85 8.69 18.12 18.12 0 01-1.85 8.66c-1.21 2.23-2.73 3.37-4.53 3.37s-3.33-1.14-4.52-3.37a19 19 0 01-1.84-8.83 17.75 17.75 0 011.84-8.52c1.2-2.21 2.72-3.34 4.5-3.34" fill="#e53f2e"/><path class="a" d="M34.09 201.7v-160a115.2 115.2 0 01-16.9 11.79 83.51 83.51 0 01-12.64 5.58L0 33.78a81.32 81.32 0 0015.7-7.31A96.81 96.81 0 0030.61 15.6 61.4 61.4 0 0041.77 2.82h18.46V201.7z"/></svg>